<?xml version="1.0" standalone="no"?>
<!DOCTYPE svg PUBLIC "-//W3C//DTD SVG 20010904//EN"
 "http://www.w3.org/TR/2001/REC-SVG-20010904/DTD/svg10.dtd">
<svg version="1.0" xmlns="http://www.w3.org/2000/svg"
 width="896.000000pt" height="896.000000pt" viewBox="0 0 896.000000 896.000000"
 preserveAspectRatio="xMidYMid meet">
<metadata>
Created by potrace 1.14, written by Peter Selinger 2001-2017
</metadata>
<g transform="translate(0.000000,896.000000) scale(0.100000,-0.100000)"
fill="#000000" stroke="none">
<path d="M4283 8875 c-196 -36 -276 -69 -528 -220 -93 -56 -235 -140 -315
-187 -80 -47 -230 -136 -335 -198 -104 -62 -203 -121 -220 -130 -16 -9 -109
-64 -205 -122 -298 -179 -803 -480 -835 -498 -16 -9 -121 -72 -233 -139 -112
-66 -205 -121 -208 -121 -2 0 -33 -18 -69 -40 -36 -22 -67 -40 -70 -40 -2 0
-26 -13 -52 -28 -26 -16 -79 -45 -118 -66 -296 -161 -474 -342 -555 -563 -62
-168 -59 -88 -57 -2058 3 -1987 -3 -1813 64 -2005 75 -218 223 -387 441 -506
85 -47 312 -176 422 -241 305 -180 516 -304 635 -373 17 -10 255 -149 530
-310 275 -161 514 -300 530 -310 17 -10 102 -59 190 -110 88 -51 188 -110 223
-131 35 -22 65 -39 67 -39 1 0 43 -24 92 -54 178 -107 318 -182 415 -222 98
-41 200 -68 322 -84 191 -26 425 42 681 199 39 24 84 51 100 61 17 9 88 52
159 94 71 42 148 87 170 100 23 13 113 65 201 116 88 51 174 101 190 110 68
38 281 163 455 267 102 61 201 120 220 131 19 10 136 78 259 151 123 72 225
131 227 131 2 0 33 18 69 40 36 22 67 40 70 40 3 0 34 18 70 40 36 22 67 40
70 40 3 0 34 18 70 40 36 22 67 40 69 40 3 0 43 23 91 50 48 28 88 50 89 50
13 0 335 192 385 230 174 129 309 313 379 515 37 105 37 101 37 1980 l0 1830
-22 85 c-32 126 -59 191 -112 272 -106 162 -180 220 -536 423 -132 76 -292
168 -355 205 -63 37 -218 127 -345 200 -126 73 -297 172 -380 220 -82 48 -253
147 -380 220 -609 352 -983 572 -1200 706 -207 128 -329 180 -494 209 -103 18
-269 18 -368 0z m215 -1409 c20 -13 105 -63 187 -111 83 -49 188 -112 235
-140 47 -29 128 -76 180 -105 89 -50 202 -117 560 -330 80 -48 213 -126 295
-175 83 -48 211 -125 285 -170 74 -45 171 -101 215 -125 117 -64 676 -402 704
-426 2 -2 3 -636 4 -1411 l0 -1407 -23 -16 c-12 -8 -59 -36 -104 -61 -148 -83
-440 -251 -476 -274 -19 -12 -89 -54 -155 -92 -66 -38 -264 -155 -440 -258
-176 -104 -410 -240 -520 -303 -110 -63 -276 -160 -370 -215 -204 -120 -407
-237 -412 -237 -2 0 -48 -30 -104 -66 -55 -36 -105 -63 -112 -60 -17 10 -44
26 -107 67 -111 72 -146 94 -169 107 -13 7 -65 37 -116 67 -50 30 -96 55 -100
55 -5 0 -18 8 -29 18 -12 10 -59 40 -106 67 -47 26 -87 51 -90 55 -3 4 -23 15
-45 25 -22 11 -76 40 -120 66 -70 41 -202 116 -345 197 -24 14 -84 49 -133 79
-48 29 -90 53 -92 53 -2 0 -24 14 -48 30 -25 17 -47 30 -50 30 -4 0 -26 14
-50 30 -25 17 -48 30 -52 30 -4 0 -19 8 -33 19 -15 10 -108 64 -207 119 -218
121 -324 182 -432 250 -46 29 -85 52 -88 52 -3 0 -35 19 -72 43 -38 24 -96 58
-131 77 l-62 33 2 1425 3 1424 150 89 c83 49 156 92 163 95 12 6 115 68 357
216 44 27 87 53 95 58 106 62 263 155 380 226 80 48 201 120 270 160 69 41
148 88 175 104 87 53 268 160 271 160 1 0 49 29 106 63 86 53 295 178 558 332
87 51 144 83 153 84 4 1 24 -10 45 -23z"/>
<path d="M4415 6696 c-18 -12 -101 -61 -345 -204 -52 -31 -176 -105 -275 -166
-99 -60 -256 -154 -350 -209 -317 -185 -460 -270 -535 -317 -41 -26 -136 -82
-210 -125 -164 -95 -252 -152 -262 -168 -4 -7 -8 -473 -8 -1037 l1 -1025 142
-81 c150 -86 434 -255 604 -361 56 -34 104 -63 107 -63 3 0 87 -49 188 -108
101 -60 226 -133 278 -162 52 -30 160 -93 240 -140 248 -148 448 -260 463
-260 9 0 31 9 49 21 34 21 349 199 353 199 1 0 67 39 146 86 79 48 252 148
384 224 132 76 303 175 381 221 77 46 272 158 432 249 160 91 294 171 296 178
3 7 6 473 6 1035 l1 1022 -125 82 c-69 45 -160 101 -203 124 -43 24 -109 61
-148 85 -38 23 -86 51 -105 61 -19 11 -98 57 -175 103 -77 46 -198 117 -270
158 -165 94 -395 230 -505 297 -139 85 -504 290 -520 292 -8 1 -24 -4 -35 -11z"/>
</g>
</svg>
